<svg width="30" height="31" viewBox="0 0 30 31" fill="none" xmlns="http://www.w3.org/2000/svg">
<path d="M27.5 3.20215H25V2.20215C25 1.67172 24.7893 1.16301 24.4142 0.787935C24.0391 0.412862 23.5304 0.202148 23 0.202148C22.4696 0.202148 21.9609 0.412862 21.5858 0.787935C21.2107 1.16301 21 1.67172 21 2.20215V3.20215H17V2.20215C17 1.67172 16.7893 1.16301 16.4142 0.787935C16.0391 0.412862 15.5304 0.202148 15 0.202148C14.4696 0.202148 13.9609 0.412862 13.5858 0.787935C13.2107 1.16301 13 1.67172 13 2.20215V3.20215H9V2.20215C9 1.67172 8.78928 1.16301 8.41421 0.787935C8.03914 0.412862 7.53043 0.202148 7 0.202148C6.46957 0.202148 5.96086 0.412862 5.58579 0.787935C5.21071 1.16301 5 1.67172 5 2.20215V3.20215H2.5C1.83696 3.20215 1.20107 3.46554 0.732233 3.93438C0.263392 4.40322 0 5.03911 0 5.70215V25.7021C0 26.3652 0.263392 27.0011 0.732233 27.4699C1.20107 27.9388 1.83696 28.2021 2.5 28.2021H16.5C16.6326 28.2021 16.7598 28.1495 16.8536 28.0557C16.9473 27.9619 17 27.8348 17 27.7021C17 27.5695 16.9473 27.4424 16.8536 27.3486C16.7598 27.2548 16.6326 27.2021 16.5 27.2021H2.5C2.10254 27.201 1.7217 27.0425 1.44065 26.7615C1.1596 26.4804 1.00119 26.0996 1 25.7021V10.2021H29V18.7021C29 18.8348 29.0527 18.9619 29.1464 19.0557C29.2402 19.1495 29.3674 19.2021 29.5 19.2021C29.6326 19.2021 29.7598 19.1495 29.8535 19.0557C29.9473 18.9619 30 18.8348 30 18.7021V5.70215C30 5.03911 29.7366 4.40322 29.2678 3.93438C28.7989 3.46554 28.163 3.20215 27.5 3.20215ZM22 2.20215C22 1.93693 22.1054 1.68258 22.2929 1.49504C22.4804 1.30751 22.7348 1.20215 23 1.20215C23.2652 1.20215 23.5196 1.30751 23.7071 1.49504C23.8946 1.68258 24 1.93693 24 2.20215V5.20215C24 5.46736 23.8946 5.72172 23.7071 5.90925C23.5196 6.09679 23.2652 6.20215 23 6.20215C22.7348 6.20215 22.4804 6.09679 22.2929 5.90925C22.1054 5.72172 22 5.46736 22 5.20215V2.20215ZM14 2.20215C14 1.93693 14.1054 1.68258 14.2929 1.49504C14.4804 1.30751 14.7348 1.20215 15 1.20215C15.2652 1.20215 15.5196 1.30751 15.7071 1.49504C15.8946 1.68258 16 1.93693 16 2.20215V5.20215C16 5.46736 15.8946 5.72172 15.7071 5.90925C15.5196 6.09679 15.2652 6.20215 15 6.20215C14.7348 6.20215 14.4804 6.09679 14.2929 5.90925C14.1054 5.72172 14 5.46736 14 5.20215V2.20215ZM6 2.20215C6 1.93693 6.10536 1.68258 6.29289 1.49504C6.48043 1.30751 6.73478 1.20215 7 1.20215C7.26522 1.20215 7.51957 1.30751 7.70711 1.49504C7.89464 1.68258 8 1.93693 8 2.20215V5.20215C8 5.46736 7.89464 5.72172 7.70711 5.90925C7.51957 6.09679 7.26522 6.20215 7 6.20215C6.73478 6.20215 6.48043 6.09679 6.29289 5.90925C6.10536 5.72172 6 5.46736 6 5.20215V2.20215ZM29 9.20215H1V5.70215C1.00119 5.30469 1.1596 4.92385 1.44065 4.6428C1.7217 4.36175 2.10254 4.20333 2.5 4.20215H5V5.20215C5 5.73258 5.21071 6.24129 5.58579 6.61636C5.96086 6.99143 6.46957 7.20215 7 7.20215C7.53043 7.20215 8.03914 6.99143 8.41421 6.61636C8.78928 6.24129 9 5.73258 9 5.20215V4.20215H13V5.20215C13 5.73258 13.2107 6.24129 13.5858 6.61636C13.9609 6.99143 14.4696 7.20215 15 7.20215C15.5304 7.20215 16.0391 6.99143 16.4142 6.61636C16.7893 6.24129 17 5.73258 17 5.20215V4.20215H21V5.20215C21 5.73258 21.2107 6.24129 21.5858 6.61636C21.9609 6.99143 22.4696 7.20215 23 7.20215C23.5304 7.20215 24.0391 6.99143 24.4142 6.61636C24.7893 6.24129 25 5.73258 25 5.20215V4.20215H27.5C27.8975 4.20333 28.2783 4.36175 28.5593 4.6428C28.8404 4.92385 28.9988 5.30469 29 5.70215V9.20215Z" fill="white"/>
<path d="M14 13.7021C14 13.4369 13.8946 13.1826 13.7071 12.995C13.5196 12.8075 13.2652 12.7021 13 12.7021H11C10.7348 12.7021 10.4804 12.8075 10.2929 12.995C10.1054 13.1826 10 13.4369 10 13.7021V15.2021C10 15.4674 10.1054 15.7217 10.2929 15.9093C10.4804 16.0968 10.7348 16.2021 11 16.2021H13C13.2652 16.2021 13.5196 16.0968 13.7071 15.9093C13.8946 15.7217 14 15.4674 14 15.2021V13.7021ZM11 15.2021V13.7021H13V15.2021H11Z" fill="white"/>
<path d="M8 13.7021C8 13.4369 7.89464 13.1826 7.70711 12.995C7.51957 12.8075 7.26522 12.7021 7 12.7021H5C4.73478 12.7021 4.48043 12.8075 4.29289 12.995C4.10536 13.1826 4 13.4369 4 13.7021V15.2021C4 15.4674 4.10536 15.7217 4.29289 15.9093C4.48043 16.0968 4.73478 16.2021 5 16.2021H7C7.26522 16.2021 7.51957 16.0968 7.70711 15.9093C7.89464 15.7217 8 15.4674 8 15.2021V13.7021ZM5 15.2021V13.7021H7V15.2021H5Z" fill="white"/>
<path d="M25 16.2021C25.2652 16.2021 25.5196 16.0968 25.7071 15.9093C25.8946 15.7217 26 15.4674 26 15.2021V13.7021C26 13.4369 25.8946 13.1826 25.7071 12.995C25.5196 12.8075 25.2652 12.7021 25 12.7021H23C22.7348 12.7021 22.4804 12.8075 22.2929 12.995C22.1054 13.1826 22 13.4369 22 13.7021V15.2021C22 15.4674 22.1054 15.7217 22.2929 15.9093C22.4804 16.0968 22.7348 16.2021 23 16.2021H25ZM23 13.7021H25V15.2021H23V13.7021Z" fill="white"/>
<path d="M14 18.2021C14 17.9369 13.8946 17.6826 13.7071 17.495C13.5196 17.3075 13.2652 17.2021 13 17.2021H11C10.7348 17.2021 10.4804 17.3075 10.2929 17.495C10.1054 17.6826 10 17.9369 10 18.2021V19.7021C10 19.9674 10.1054 20.2217 10.2929 20.4093C10.4804 20.5968 10.7348 20.7021 11 20.7021H13C13.2652 20.7021 13.5196 20.5968 13.7071 20.4093C13.8946 20.2217 14 19.9674 14 19.7021V18.2021ZM11 19.7021V18.2021H13V19.7021H11Z" fill="white"/>
<path d="M8 18.2021C8 17.9369 7.89464 17.6826 7.70711 17.495C7.51957 17.3075 7.26522 17.2021 7 17.2021H5C4.73478 17.2021 4.48043 17.3075 4.29289 17.495C4.10536 17.6826 4 17.9369 4 18.2021V19.7021C4 19.9674 4.10536 20.2217 4.29289 20.4093C4.48043 20.5968 4.73478 20.7021 5 20.7021H7C7.26522 20.7021 7.51957 20.5968 7.70711 20.4093C7.89464 20.2217 8 19.9674 8 19.7021V18.2021ZM5 19.7021V18.2021H7V19.7021H5Z" fill="white"/>
<path d="M13 21.7021H11C10.7348 21.7021 10.4804 21.8075 10.2929 21.995C10.1054 22.1826 10 22.4369 10 22.7021V24.2021C10 24.4674 10.1054 24.7217 10.2929 24.9093C10.4804 25.0968 10.7348 25.2021 11 25.2021H13C13.2652 25.2021 13.5196 25.0968 13.7071 24.9093C13.8946 24.7217 14 24.4674 14 24.2021V22.7021C14 22.4369 13.8946 22.1826 13.7071 21.995C13.5196 21.8075 13.2652 21.7021 13 21.7021ZM11 24.2021V22.7021H13V24.2021H11Z" fill="white"/>
<path d="M17 16.2021H19C19.2652 16.2021 19.5196 16.0968 19.7071 15.9093C19.8946 15.7217 20 15.4674 20 15.2021V13.7021C20 13.4369 19.8946 13.1826 19.7071 12.995C19.5196 12.8075 19.2652 12.7021 19 12.7021H17C16.7348 12.7021 16.4804 12.8075 16.2929 12.995C16.1054 13.1826 16 13.4369 16 13.7021V15.2021C16 15.4674 16.1054 15.7217 16.2929 15.9093C16.4804 16.0968 16.7348 16.2021 17 16.2021ZM17 13.7021H19V15.2021H17V13.7021Z" fill="white"/>
<path d="M16 19.7021C16 19.9674 16.1054 20.2217 16.2929 20.4093C16.4804 20.5968 16.7348 20.7021 17 20.7021C17.1326 20.7021 17.2598 20.6495 17.3536 20.5557C17.4473 20.4619 17.5 20.3348 17.5 20.2021C17.5 20.0695 17.4473 19.9424 17.3536 19.8486C17.2598 19.7548 17.1326 19.7021 17 19.7021V18.2021H19C19.1326 18.2021 19.2598 18.1495 19.3536 18.0557C19.4473 17.9619 19.5 17.8348 19.5 17.7021C19.5 17.5695 19.4473 17.4424 19.3536 17.3486C19.2598 17.2548 19.1326 17.2021 19 17.2021H17C16.7348 17.2021 16.4804 17.3075 16.2929 17.495C16.1054 17.6826 16 17.9369 16 18.2021V19.7021Z" fill="white"/>
<path d="M7 21.7021H5C4.73478 21.7021 4.48043 21.8075 4.29289 21.995C4.10536 22.1826 4 22.4369 4 22.7021V24.2021C4 24.4674 4.10536 24.7217 4.29289 24.9093C4.48043 25.0968 4.73478 25.2021 5 25.2021H7C7.26522 25.2021 7.51957 25.0968 7.70711 24.9093C7.89464 24.7217 8 24.4674 8 24.2021V22.7021C8 22.4369 7.89464 22.1826 7.70711 21.995C7.51957 21.8075 7.26522 21.7021 7 21.7021ZM5 24.2021V22.7021H7V24.2021H5Z" fill="white"/>
<path d="M23.5 17.2021C22.2144 17.2021 20.9577 17.5834 19.8888 18.2976C18.8199 19.0118 17.9867 20.027 17.4948 21.2147C17.0028 22.4024 16.8741 23.7094 17.1249 24.9702C17.3757 26.2311 17.9948 27.3893 18.9038 28.2983C19.8128 29.2074 20.971 29.8264 22.2319 30.0773C23.4928 30.3281 24.7997 30.1993 25.9874 29.7074C27.1752 29.2154 28.1903 28.3823 28.9045 27.3134C29.6188 26.2444 30 24.9877 30 23.7021C29.998 21.9788 29.3126 20.3267 28.094 19.1081C26.8754 17.8896 25.2233 17.2041 23.5 17.2021ZM23.5 29.2021C22.4122 29.2021 21.3488 28.8796 20.4444 28.2752C19.5399 27.6709 18.8349 26.8119 18.4187 25.8069C18.0024 24.8019 17.8935 23.696 18.1057 22.6292C18.3179 21.5623 18.8417 20.5822 19.6109 19.8131C20.3801 19.0439 21.3601 18.52 22.427 18.3078C23.4939 18.0956 24.5998 18.2045 25.6048 18.6208C26.6097 19.0371 27.4687 19.742 28.0731 20.6465C28.6774 21.551 29 22.6144 29 23.7021C28.9983 25.1603 28.4183 26.5583 27.3872 27.5893C26.3561 28.6204 24.9582 29.2004 23.5 29.2021Z" fill="white"/>
<path d="M26.389 21.6062L22.5 25.4952L20.7325 23.7272C20.6382 23.6361 20.5119 23.5857 20.3808 23.5868C20.2497 23.588 20.1243 23.6406 20.0316 23.7333C19.9389 23.826 19.8863 23.9514 19.8852 24.0825C19.884 24.2136 19.9344 24.3399 20.0255 24.4342L22.1465 26.5557C22.2403 26.6494 22.3674 26.7021 22.5 26.7021C22.6326 26.7021 22.7597 26.6494 22.8535 26.5557L27.096 22.3132C27.1871 22.2189 27.2375 22.0926 27.2363 21.9615C27.2352 21.8304 27.1826 21.705 27.0899 21.6123C26.9972 21.5196 26.8718 21.467 26.7407 21.4658C26.6096 21.4647 26.4833 21.5151 26.389 21.6062Z" fill="white"/>
</svg>
