<svg width="34" height="31" viewBox="0 0 34 31" fill="none" xmlns="http://www.w3.org/2000/svg">
<path d="M19.2228 16.4516V18.9053C25.3539 19.5127 29.0024 21.6409 29.0024 23.2384C29.0024 25.1211 23.9522 27.7462 15.7285 27.7462C7.50481 27.7462 2.4558 25.1211 2.4558 23.2384C2.4558 21.629 6.15464 19.4817 12.364 18.8913V16.4387C5.89846 17.044 0 19.381 0 23.2384C0 27.7612 8.10359 30.2021 15.7285 30.2021C23.3532 30.2021 31.4582 27.7612 31.4582 23.2384C31.4582 19.4067 25.6377 17.0762 19.2228 16.4516Z" fill="white"/>
<path d="M32.7451 1.27375C32.5575 1.15591 32.3443 1.09686 32.13 1.09686C31.9584 1.09686 31.7871 1.13439 31.6275 1.21147L29.5915 2.1994C28.6443 2.65916 27.6178 2.88844 26.5924 2.88844C25.508 2.88844 24.4258 2.63232 23.4368 2.12225C22.4499 1.61326 21.3721 1.36044 20.2962 1.36044C19.1712 1.36044 18.0471 1.63585 17.0281 2.18446V1.43765C17.0281 0.755063 16.4742 0.202148 15.7927 0.202148C15.1112 0.202148 14.5583 0.755063 14.5583 1.43765V23.561C14.5583 24.2425 15.1112 24.7954 15.7927 24.7954C16.4742 24.7954 17.0281 24.2425 17.0281 23.561V12.2695C18.0471 11.7209 19.1723 11.4444 20.2972 11.4444C21.3731 11.4444 22.4499 11.6973 23.4368 12.2061C24.4258 12.7162 25.508 12.9724 26.5912 12.9724C27.6167 12.9724 28.6432 12.7431 29.5915 12.2834L32.6345 10.8069C33.0331 10.614 33.2859 10.2111 33.2859 9.76864V2.25199C33.2861 1.85336 33.0804 1.48372 32.7451 1.27375Z" fill="white"/>
</svg>
