<svg width="28" height="31" viewBox="0 0 28 31" fill="none" xmlns="http://www.w3.org/2000/svg">
<path d="M7.67385 27.3525V26.3486C7.67385 25.8478 7.26645 25.4404 6.76564 25.4404H3.82031C3.31951 25.4404 2.91211 25.8478 2.91211 26.3486V27.3525C2.91211 27.8533 3.31951 28.2607 3.82031 28.2607H6.76564C7.26645 28.2607 7.67385 27.8533 7.67385 27.3525ZM3.79102 27.3525V26.3486C3.79102 26.3325 3.80414 26.3193 3.82031 26.3193H6.76564C6.78182 26.3193 6.79494 26.3325 6.79494 26.3486V27.3525C6.79494 27.3687 6.78182 27.3818 6.76564 27.3818H3.82031C3.80414 27.3818 3.79102 27.3687 3.79102 27.3525Z" fill="white"/>
<path d="M19.8536 20.5869C19.076 20.5869 18.4434 21.2195 18.4434 21.9971C18.4434 22.7747 19.076 23.4072 19.8536 23.4072C20.6311 23.4072 21.2637 22.7746 21.2637 21.9971C21.2637 21.2196 20.6311 20.5869 19.8536 20.5869ZM19.8536 22.5283C19.5606 22.5283 19.3223 22.29 19.3223 21.9971C19.3223 21.7041 19.5606 21.4658 19.8536 21.4658C20.1465 21.4658 20.3848 21.7041 20.3848 21.9971C20.3848 22.29 20.1465 22.5283 19.8536 22.5283Z" fill="white"/>
<path d="M24.707 16.7041H24.1758V14.2314V10.3486C24.1758 9.57105 23.5433 8.93848 22.7657 8.93848H22.2345V3.06838C22.2345 2.55844 21.8195 2.14359 21.3096 2.14359H12.5733C12.5578 2.14359 12.5427 2.14518 12.5274 2.14594V1.5791C12.5274 0.819844 11.9097 0.202148 11.1504 0.202148H3.31834C2.55908 0.202148 1.94139 0.819844 1.94139 1.5791V3.16014C1.94139 3.40283 2.13814 3.59959 2.38084 3.59959C2.62354 3.59959 2.82029 3.40283 2.82029 3.16014V1.5791C2.82029 1.30447 3.04371 1.08105 3.31834 1.08105H3.88277V12.8213H2.82029V4.91795C2.82029 4.67525 2.62354 4.4785 2.38084 4.4785C2.13814 4.4785 1.94139 4.67525 1.94139 4.91795V8.9792C1.46186 9.06797 1.02234 9.30141 0.674297 9.65918C0.241113 10.1044 0.00410151 10.6863 0.000703074 11.3051C0.000527293 11.3098 0 11.3145 0 11.3193V27.8212C0 29.1341 1.06805 30.2021 2.3809 30.2021H4.41404C4.65674 30.2021 4.8535 30.0054 4.8535 29.7627C4.8535 29.52 4.65674 29.3232 4.41404 29.3232H2.3809C1.55273 29.3232 0.878906 28.6495 0.878906 27.8212V13.1465C1.28068 13.4755 1.78986 13.6801 2.34146 13.6982C2.35447 13.6993 22.7656 13.7002 22.7656 13.7002C23.0585 13.7002 23.2968 13.9385 23.2968 14.2314V18.6454H17.9121C17.1345 18.6454 16.5019 19.278 16.5019 20.0556V23.9385C16.5019 24.7161 17.1345 25.3486 17.9121 25.3486H23.2968V28.792C23.2968 29.0849 23.0585 29.3232 22.7656 29.3232H6.17185C5.92916 29.3232 5.7324 29.52 5.7324 29.7627C5.7324 30.0054 5.92916 30.2021 6.17185 30.2021H22.7657C23.5433 30.2021 24.1758 29.5696 24.1758 28.792V25.3486H24.707C26.0198 25.3486 27.0878 24.2805 27.0878 22.9678V19.0849C27.0879 17.7721 26.0198 16.7041 24.707 16.7041ZM0.879492 11.3619C0.868242 10.9522 1.01912 10.5652 1.30424 10.2721C1.48395 10.0874 1.70221 9.95508 1.94139 9.88236V12.7451C1.34162 12.5507 0.897129 12.0043 0.879492 11.3619ZM12.5732 3.02244H21.3095C21.3349 3.02244 21.3555 3.04307 21.3555 3.06832V12.8212H20.2929V5.77119C20.2929 5.44939 20.0737 5.17582 19.76 5.10598C19.5355 5.05594 19.3212 4.84154 19.2721 4.61795C19.2042 4.30904 18.9244 4.08486 18.6068 4.08486H15.276C14.9542 4.08486 14.6807 4.30406 14.6108 4.61783C14.5608 4.84236 14.3464 5.05664 14.1228 5.1058C13.8139 5.17365 13.5897 5.45344 13.5897 5.77107V12.8212H12.5273V3.06838C12.5273 3.04307 12.5479 3.02244 12.5732 3.02244ZM19.414 12.8213H14.4687V5.91979C14.9057 5.76797 15.2722 5.40141 15.4246 4.96389H18.4581C18.61 5.40082 18.9765 5.76738 19.414 5.91979V12.8213ZM11.6484 1.5791V3.06838V12.8213H6.70312V1.08105H11.1504C11.425 1.08105 11.6484 1.30447 11.6484 1.5791ZM4.76174 12.8213V1.08105H5.82422V12.8213H4.76174ZM22.7657 12.8213H22.2344V9.81738H22.7657C23.0586 9.81738 23.2969 10.0557 23.2969 10.3486V12.9255C23.1328 12.8585 22.9535 12.8213 22.7657 12.8213ZM26.209 22.9678C26.209 23.7959 25.5352 24.4697 24.707 24.4697H17.9121C17.6192 24.4697 17.3808 24.2314 17.3808 23.9385V20.0556C17.3808 19.7627 17.6191 19.5244 17.9121 19.5244H24.2217C24.4644 19.5244 24.6611 19.3276 24.6611 19.0849C24.6611 18.8422 24.4644 18.6455 24.2217 18.6455H24.1758V17.583H24.707C25.5352 17.583 26.2089 18.2568 26.2089 19.0849V22.9678H26.209Z" fill="white"/>
<path d="M16.9414 8.93848C16.1638 8.93848 15.5312 9.57105 15.5312 10.3486C15.5312 11.1261 16.1638 11.7588 16.9414 11.7588C17.719 11.7588 18.3515 11.1262 18.3515 10.3486C18.3516 9.57105 17.719 8.93848 16.9414 8.93848ZM16.9414 10.8799C16.6484 10.8799 16.4101 10.6416 16.4101 10.3486C16.4101 10.0557 16.6484 9.81738 16.9414 9.81738C17.2343 9.81738 17.4726 10.0557 17.4726 10.3486C17.4727 10.6416 17.2343 10.8799 16.9414 10.8799Z" fill="white"/>
<path d="M16.9414 7.876C17.1841 7.876 17.3808 7.67924 17.3808 7.43654V6.46582C17.3808 6.22312 17.1841 6.02637 16.9414 6.02637C16.6987 6.02637 16.5019 6.22312 16.5019 6.46582V7.43654C16.5019 7.67924 16.6987 7.876 16.9414 7.876Z" fill="white"/>
<path d="M8.67381 5.93457H9.6777C10.1785 5.93457 10.5859 5.52717 10.5859 5.02637V3.05176C10.5859 2.55096 10.1785 2.14355 9.6777 2.14355H8.67381C8.17301 2.14355 7.76561 2.55096 7.76561 3.05176V5.02637C7.76561 5.52711 8.17301 5.93457 8.67381 5.93457ZM8.64452 3.0517C8.64452 3.03553 8.65764 3.0224 8.67381 3.0224H9.6777C9.69387 3.0224 9.707 3.03553 9.707 3.0517V5.02631C9.707 5.04248 9.69387 5.05561 9.6777 5.05561H8.67381C8.65764 5.05561 8.64452 5.04248 8.64452 5.02631V3.0517Z" fill="white"/>
</svg>
